:version 1.10
:name ASF
:units
  mass 1
  length 1
  angle deg
:documentation
  ASF file generated by Kaydara
:root
  axis xyz
  order  tx ty tz rx ry rz
  position 0 0 0
  orientation 0 0 0
:bonedata
  begin
    id 1
    name RightUpLegDummy
    direction -1 2.30186e-007 8.31532e-007
    length 4.04083
    axis 0 0 0 xyz
  end
  begin
    id 2
    name RightUpLeg
    direction -0.000919234 -0.999985 0.00544864
    length 17.4221
    axis -3.80308 -0.00076134 -0.0523649 xyz
    dof rx ry rz
  end
  begin
    id 3
    name RightLeg
    direction -0.000919271 -0.999984 -0.00555045
    length 17.1239
    axis 4.00314 0.0181274 -0.183583 xyz
    dof rx ry rz
  end
  begin
    id 4
    name RightFoot
    direction -2.57843e-005 -4.04509e-007 1
    length 6.72091
    axis 8.18909e-005 -0.122003 -0.403008 xyz
    dof rx ry rz
  end
  begin
    id 5
    name RightToes
    direction 0.00116825 -0.014069 0.9999
    length 3.85082
    axis 0.000514414 0.540638 -0.356797 xyz
    dof rx ry rz
  end
  begin
    id 6
    name SpineDummy
    direction 0.0168869 0.966876 -0.254689
    length 6.99894
    axis 0 0 0 xyz
  end
  begin
    id 7
    name Spine
    direction -0.0132008 0.999903 0.00446247
    length 11.1999
    axis -0.00148109 0.00725429 0.756411 xyz
    dof rx ry rz
  end
  begin
    id 8
    name Spine1
    direction 0 0 0
    length 0
    axis -0.000934958 0.0245693 1.46543 xyz
    dof rx ry rz
  end
  begin
    id 9
    name HEadDummy
    direction -0.0255732 0.999672 0.00128215
    length 3.43865
    axis -0.000934958 0.0245693 1.46543 xyz
  end
  begin
    id 10
    name HEad
    direction -0.0472656 0.980052 0.19304
    length 5.12695
    axis -0.000934954 0.0245693 1.46543 xyz
    dof rx ry rz
  end
  begin
    id 11
    name LeftShoulder1Dummy
    direction 0.953098 0.301717 -0.023914
    length 3.68488
    axis -0.000934958 0.0245693 1.46543 xyz
  end
  begin
    id 12
    name LeftShoulder1
    direction 0.962466 0.271167 0.0112566
    length 3.13809
    axis -0.000934958 0.0245693 1.46543 xyz
    dof rx ry rz
  end
  begin
    id 13
    name LeftArm
    direction 0.999943 0.00455037 -0.00961766
    length 11.3419
    axis -23.1648 0.685459 1.22814 xyz
    dof rx ry rz
  end
  begin
    id 14
    name LeftForeArm
    direction 0.999332 0.0131969 0.0340885
    length 8.70632
    axis -9.90633 0.618216 0.0826942 xyz
    dof rx ry rz
  end
  begin
    id 15
    name LeftHand
    direction 0.994373 -0.0366703 0.0993905
    length 5.32135
    axis 0.00675269 0.680415 0.445699 xyz
    dof rx ry rz
  end
  begin
    id 16
    name RightShoulderDummy
    direction -0.967298 0.252589 -0.0230903
    length 3.68488
    axis -0.000934958 0.0245693 1.46543 xyz
  end
  begin
    id 17
    name RightShoulder
    direction -0.975062 0.221602 0.0120823
    length 3.13809
    axis 0.216257 0.0246515 1.45863 xyz
    dof rx ry rz
  end
  begin
    id 18
    name RightArm
    direction -0.99886 -0.00851186 -0.0469687
    length 10.3947
    axis -23.196 0.23503 -0.532632 xyz
    dof rx ry rz
  end
  begin
    id 19
    name RightForeArm
    direction -0.99909 0.00114866 0.0426317
    length 8.68355
    axis -9.91764 -0.134943 0.610517 xyz
    dof rx ry rz
  end
  begin
    id 20
    name RightHand
    direction -0.992888 -0.0489538 0.10852
    length 5.28593
    axis -0.00275396 -0.197403 0.246414 xyz
    dof rx ry rz
  end
  begin
    id 21
    name LeftUpLegDummy
    direction 1 -2.30186e-007 -8.31532e-007
    length 4.04083
    axis 0 0 0 xyz
  end
  begin
    id 22
    name LeftUpLeg
    direction -0.000920097 -1 2.79241e-006
    length 17.4221
    axis -3.48782 0.00143434 -0.0532288 xyz
    dof rx ry rz
  end
  begin
    id 23
    name LeftLeg
    direction -0.000920097 -1 2.7912e-006
    length 17.1239
    axis 3.68162 -0.00806512 -0.0529896 xyz
    dof rx ry rz
  end
  begin
    id 24
    name LeftFoot
    direction -2.57845e-005 -3.987e-007 1
    length 6.72091
    axis 3.02372e-005 -0.00147829 -0.214229 xyz
    dof rx ry rz
  end
  begin
    id 25
    name LeftToes
    direction 0.00813577 -0.00488255 0.999955
    length 3.85048
    axis 3.89895e-005 -0.0014783 -0.214229 xyz
    dof rx ry rz
  end
:hierarchy
  begin
    root RightUpLegDummy SpineDummy LeftUpLegDummy
    RightUpLegDummy RightUpLeg
    RightUpLeg RightLeg
    RightLeg RightFoot
    RightFoot RightToes
    SpineDummy Spine
    Spine Spine1
    Spine1 HEadDummy LeftShoulder1Dummy RightShoulderDummy
    HEadDummy HEad
    LeftShoulder1Dummy LeftShoulder1
    LeftShoulder1 LeftArm
    LeftArm LeftForeArm
    LeftForeArm LeftHand
    RightShoulderDummy RightShoulder
    RightShoulder RightArm
    RightArm RightForeArm
    RightForeArm RightHand
    LeftUpLegDummy LeftUpLeg
    LeftUpLeg LeftLeg
    LeftLeg LeftFoot
    LeftFoot LeftToes
  end

:SAMPLES-PER-SECOND 30
:FULLY-SPECIFIED
:DEGREES
114
root  -24.0403 33.0614 12.0583 -166.489 47.3719 -178.693
RightUpLeg  -11.2731 -21.0641 -14.3107
RightLeg  10.9885 -1.14606 -0.145959
RightFoot  9.98014 0.0365059 0.116715
RightToes  -43.8007 -0.249535 -0.33557
Spine  1.47184 5.16209 -3.15697
Spine1  2.25937 11.1309 -5.90473
HEad  -71.9021 -20.6997 17.0638
LeftShoulder1  -1.94126e-019 -3.10601e-018 -2.51263e-017
LeftArm  -19.6717 8.73183 -74.2783
LeftForeArm  22.9441 -57.5515 -15.7689
LeftHand  -0.344465 -1.2619 6.16079
RightShoulder  -4.96962e-017 0 -2.36833e-017
RightArm  -27.8401 38.3071 68.7945
RightForeArm  41.4921 17.1656 1.74425
RightHand  -0.144172 -0.689759 -3.49973
LeftUpLeg  -36.035 -2.23556 11.0891
LeftLeg  29.2443 -1.2897 -0.62124
LeftFoot  9.16329 0.00977171 0.0395677
LeftToes  -37.3065 1.9075e-006 4.29692e-008
115
root  -23.3673 32.756 12.7037 -167.259 46.222 -177.914
RightUpLeg  -12.2901 -25.1994 -13.1403
RightLeg  17.0675 2.55568 0.607198
RightFoot  5.22439 -0.00558501 0.622826
RightToes  -46.4837 -0.272238 -0.348743
Spine  2.32204 6.1192 -2.49912
Spine1  3.93045 13.3831 -4.72018
HEad  -75.2304 -20.8324 18.1567
LeftShoulder1  -1.94126e-019 -3.10601e-018 -2.51263e-017
LeftArm  -21.394 7.15035 -70.9006
LeftForeArm  22.322 -58.3498 -16.3917
LeftHand  -0.343973 -0.401895 6.98642
RightShoulder  -4.96962e-017 0 -2.36833e-017
RightArm  1.23685 32.8675 72.983
RightForeArm  56.7572 16.5884 1.01937
RightHand  0.929287 11.7283 5.83592
LeftUpLeg  -36.1628 -1.35879 12.886
LeftLeg  31.6068 -2.56831 -1.36543
LeftFoot  8.57837 0.0212517 -0.112327
LeftToes  -40.4122 1.9075e-006 4.29692e-008
116
root  -22.8226 32.6485 13.2414 -167.82 45.601 -177.497
RightUpLeg  -14.0681 -27.3948 -12.1533
RightLeg  23.0664 4.21747 1.47848
RightFoot  1.92927 -0.00166689 0.546982
RightToes  -45.4032 -0.263021 -0.343566
Spine  2.94373 6.63341 -1.8295
Spine1  5.35615 14.4269 -3.38209
HEad  -78.6348 -20.4378 18.7953
LeftShoulder1  -1.94126e-019 -3.10601e-018 -2.51263e-017
LeftArm  -23.4671 6.39274 -66.9658
LeftForeArm  22.193 -59.809 -17.5305
LeftHand  -0.312505 1.22349 8.64111
RightShoulder  -4.96962e-017 0 -2.36833e-017
RightArm  9.87752 26.6402 79.5501
RightForeArm  70.0415 16.5371 0.714819
RightHand  0.0806285 6.8933 0.406605
LeftUpLeg  -35.3887 -1.83957 14.5554
LeftLeg  31.5193 -2.5583 -1.35512
LeftFoot  8.86626 0.0216227 -0.117399
LeftToes  -41.4804 1.9075e-006 4.29692e-008
117
root  -22.2917 32.6677 13.6456 -167.916 45.8784 -177.914
RightUpLeg  -15.0898 -25.6526 -11.3293
RightLeg  24.9387 2.71999 1.0523
RightFoot  0.00104339 -0.000969072 0.348694
RightToes  -44.4124 -0.254656 -0.338666
Spine  2.82172 6.60191 -1.15417
Spine1  5.37849 14.0876 -1.87191
HEad  -79.9878 -19.4688 18.0915
LeftShoulder1  -1.94126e-019 -3.10601e-018 -2.51263e-017
LeftArm  -26.4101 8.53363 -62.4995
LeftForeArm  21.0334 -62.2231 -19.7997
LeftHand  -0.282663 1.91727 9.27763
RightShoulder  -4.96962e-017 0 -2.36833e-017
RightArm  6.6239 17.6747 83.1361
RightForeArm  75.0587 18.6683 0.717248
RightHand  -0.876101 7.17202 -8.42407
LeftUpLeg  -34.103 -3.28966 15.817
LeftLeg  29.2669 -1.2132 -0.585251
LeftFoot  9.66169 0.00849973 0.0609363
LeftToes  -42.6437 1.9075e-006 4.29692e-008
118
root  -21.8577 32.8219 13.8473 -168.183 46.2646 -178.61
RightUpLeg  -14.5689 -24.019 -11.0163
RightLeg  23.817 1.42143 0.516565
RightFoot  -0.483757 -0.00188329 0.271123
RightToes  -43.4626 -0.246718 -0.333835
Spine  2.43326 5.83817 -0.477599
Spine1  4.79326 12.244 -0.40811
HEad  -78.3922 -17.0664 16.5622
LeftShoulder1  -1.94126e-019 -3.10601e-018 -2.51263e-017
LeftArm  -28.8252 11.8081 -57.1004
LeftForeArm  25.134 -65.2297 -22.589
LeftHand  -0.344739 1.59916 10.4556
RightShoulder  -4.96962e-017 0 -2.36833e-017
RightArm  -3.86724 6.99623 84.0528
RightForeArm  62.4624 24.6609 2.19447
RightHand  -0.828544 9.57533 -6.80084
LeftUpLeg  -32.1928 -6.05559 16.7916
LeftLeg  26.0344 1.54668 0.632016
LeftFoot  10.7974 -0.0364181 0.546871
LeftToes  -42.3919 1.9075e-006 4.29692e-008
119
root  -21.4892 33.0762 13.8796 -168.005 46.5831 -178.602
RightUpLeg  -12.8871 -22.6893 -10.5202
RightLeg  20.6588 0.451416 0.135328
RightFoot  0.575438 0.000830965 0.239935
RightToes  -42.5952 -0.23954 -0.329308
Spine  1.83464 5.13224 0.410106
Spine1  3.75381 10.6533 1.33314
HEad  -74.0163 -14.8741 13.9219
LeftShoulder1  -1.94126e-019 -3.10601e-018 -2.51263e-017
LeftArm  -31.6613 13.6035 -52.9122
LeftForeArm  29.6779 -68.2701 -26.3082
LeftHand  -0.363688 1.92257 12.0405
RightShoulder  -4.96962e-017 0 -2.36833e-017
RightArm  -10.9127 -3.92717 81.763
RightForeArm  54.8429 32.5577 4.14351
RightHand  -0.399629 7.54829 -3.9427
LeftUpLeg  -29.8857 -8.45339 17.7559
LeftLeg  22.4274 4.20107 1.42087
LeftFoot  11.8275 -0.0978548 1.10621
LeftToes  -41.0562 1.9075e-006 4.29692e-008
120
root  -21.1822 33.2953 13.7915 -168.012 47.8925 -179.229
RightUpLeg  -11.8095 -20.9992 -10.644
RightLeg  17.6556 -0.106105 -0.0273767
RightFoot  1.65238 0.00304184 0.196309
RightToes  -42.0696 -0.235223 -0.326512
Spine  1.06421 4.67999 1.12253
Spine1  2.329 9.68846 2.67428
HEad  -68.5649 -12.8073 10.9108
LeftShoulder1  -1.94126e-019 -3.10601e-018 -2.51263e-017
LeftArm  -37.507 12.9572 -50.9054
LeftForeArm  34.3105 -71.6706 -32.5128
LeftHand  -0.40525 2.17559 14.483
RightShoulder  -4.96962e-017 0 -2.36833e-017
RightArm  -17.2617 -12.6517 77.7807
RightForeArm  56.4963 36.5169 5.01154
RightHand  -0.550008 9.16304 -4.76694
LeftUpLeg  -27.4556 -8.36754 17.4458
LeftLeg  18.9903 5.67742 1.54841
LeftFoot  12.8492 -0.149121 1.48578
LeftToes  -41.0967 1.9075e-006 4.29692e-008
